<svg xmlns="http://www.w3.org/2000/svg" width="256" height="224" viewBox="0 0 256 224"><defs>
    <radialGradient id="body" cx="38%" cy="24%" r="84%"><stop offset="0%" stop-color="#FBBBD2"/><stop offset="48%" stop-color="#EE6D9E"/><stop offset="100%" stop-color="#C5406B"/></radialGradient>
    <radialGradient id="frill" cx="42%" cy="16%" r="95%"><stop offset="0%" stop-color="#F7AAC6"/><stop offset="55%" stop-color="#DE5D86"/><stop offset="100%" stop-color="#AE3A62"/></radialGradient>
    <radialGradient id="sheen" cx="50%" cy="50%" r="50%"><stop offset="0%" stop-color="#FFFFFF" stop-opacity="0.55"/><stop offset="100%" stop-color="#FFFFFF" stop-opacity="0"/></radialGradient>
    <radialGradient id="shade" cx="50%" cy="50%" r="50%"><stop offset="0%" stop-color="#98285180" stop-opacity="0.55"/><stop offset="100%" stop-color="#982851" stop-opacity="0"/></radialGradient>
    <radialGradient id="ground" cx="50%" cy="50%" r="50%"><stop offset="0%" stop-color="#3A2A30" stop-opacity="0.22"/><stop offset="100%" stop-color="#3A2A30" stop-opacity="0"/></radialGradient>
    <radialGradient id="ecast" cx="50%" cy="50%" r="50%"><stop offset="0%" stop-color="#A5395F" stop-opacity="0.5"/><stop offset="100%" stop-color="#A5395F" stop-opacity="0"/></radialGradient>
    <linearGradient id="eye" x1="0" y1="0" x2="0" y2="1"><stop offset="0%" stop-color="#FFFFFF"/><stop offset="100%" stop-color="#E4E4EC"/></linearGradient>
    <radialGradient id="eshine" cx="50%" cy="50%" r="50%"><stop offset="0%" stop-color="#FFFFFF" stop-opacity="0.95"/><stop offset="100%" stop-color="#FFFFFF" stop-opacity="0"/></radialGradient>
  </defs><g transform="translate(38 16.5) scale(.75)"><ellipse cx="120" cy="236" rx="80" ry="15" fill="url(#ground)"/><ellipse cx="168" cy="74" rx="13" ry="34" transform="rotate(24 168 74)" fill="url(#frill)"/>
    <ellipse cx="190" cy="104" rx="12" ry="33" transform="rotate(50 190 104)" fill="url(#frill)"/>
    <ellipse cx="195" cy="136" rx="11" ry="30" transform="rotate(78 195 136)" fill="url(#frill)"/><ellipse cx="72" cy="74" rx="13" ry="34" transform="rotate(-24 72 74)" fill="url(#frill)"/>
    <ellipse cx="50" cy="104" rx="12" ry="33" transform="rotate(-50 50 104)" fill="url(#frill)"/>
    <ellipse cx="45" cy="136" rx="11" ry="30" transform="rotate(-78 45 136)" fill="url(#frill)"/><ellipse cx="120" cy="130" rx="78" ry="70" fill="url(#body)"/>
    <ellipse cx="120" cy="182" rx="64" ry="36" fill="url(#shade)"/>
    <ellipse cx="96" cy="92" rx="52" ry="30" fill="url(#sheen)"/>
    <circle cx="152" cy="108" r="2" fill="#fff" opacity="0.5"/>
    <circle cx="94" cy="150" r="1.6" fill="#fff" opacity="0.45"/>
    <circle cx="132" cy="78" r="1.5" fill="#fff" opacity="0.5"/>
    <circle cx="164" cy="158" r="1.8" fill="#fff" opacity="0.4"/><ellipse cx="106" cy="152" rx="15" ry="8" fill="url(#ecast)"/>
    <ellipse cx="138" cy="152" rx="15" ry="8" fill="url(#ecast)"/>
    <rect x="91" y="104" width="26" height="48" rx="13" fill="url(#eye)"/>
    <rect x="123" y="104" width="26" height="48" rx="13" fill="url(#eye)"/>
    <ellipse cx="100" cy="117" rx="5" ry="8" fill="url(#eshine)"/>
    <ellipse cx="132" cy="117" rx="5" ry="8" fill="url(#eshine)"/></g></svg>